<?xml version="1.0" encoding="utf-8"?>
<!-- Generator: Adobe Illustrator 19.0.0, SVG Export Plug-In . SVG Version: 6.00 Build 0)  -->
<svg version="1.1" id="Download" xmlns="http://www.w3.org/2000/svg" xmlns:xlink="http://www.w3.org/1999/xlink" x="0px" y="0px"
	 viewBox="-410 585.5 20 20" style="enable-background:new -410 585.5 20 20;" xml:space="preserve">
<style type="text/css">
	.st0{fill:#FF0000;}
</style>
<path class="st0" d="M-395,592.5h-3v-6h-4v6h-3l5,5L-395,592.5z M-390.7,599.1c-0.2-0.2-1.6-1.7-2-2.1c-0.3-0.3-0.6-0.4-1-0.4h-1.8
	l3.1,3h-3.5c-0.1,0-0.2,0.1-0.2,0.1l-0.8,1.9h-6l-0.8-1.9c0-0.1-0.1-0.1-0.2-0.1h-3.5l3.1-3h-1.8c-0.4,0-0.8,0.2-1,0.4
	c-0.4,0.4-1.8,1.9-2,2.1c-0.5,0.5-0.8,0.9-0.6,1.4l0.6,3.1c0.1,0.5,0.7,0.9,1.3,0.9h16.3c0.6,0,1.1-0.4,1.3-0.9l0.6-3.1
	C-389.9,600-390.2,599.6-390.7,599.1z"/>
</svg>
