<?xml version="1.0" encoding="utf-8"?>
<!-- Generator: Adobe Illustrator 19.0.0, SVG Export Plug-In . SVG Version: 6.00 Build 0)  -->
<svg version="1.1" id="Info_circled" xmlns="http://www.w3.org/2000/svg" xmlns:xlink="http://www.w3.org/1999/xlink" x="0px"
	 y="0px" viewBox="-410 585.5 20 20" style="enable-background:new -410 585.5 20 20;" xml:space="preserve">
<style type="text/css">
	.st0{fill:#686868;}
</style>
<path class="st0" d="M-400,585.9c-5.3,0-9.6,4.3-9.6,9.6c0,5.3,4.3,9.6,9.6,9.6c5.3,0,9.6-4.3,9.6-9.6
	C-390.4,590.2-394.7,585.9-400,585.9z M-399.1,589.4c0.9,0,1.2,0.5,1.2,1.2c0,0.8-0.6,1.5-1.7,1.5c-0.9,0-1.3-0.4-1.3-1.2
	C-400.9,590.3-400.3,589.4-399.1,589.4z M-401.5,601.3c-0.6,0-1.1-0.4-0.7-2.1l0.7-3c0.1-0.5,0.1-0.7,0-0.7c-0.2,0-1,0.3-1.5,0.7
	l-0.3-0.5c1.6-1.3,3.3-2.1,4.1-2.1c0.6,0,0.7,0.8,0.4,1.9l-0.8,3.2c-0.1,0.6-0.1,0.8,0.1,0.8c0.2,0,0.8-0.2,1.4-0.7l0.4,0.5
	C-399.2,600.7-400.9,601.3-401.5,601.3z"/>
</svg>
