<?xml version="1.0" encoding="utf-8"?>
<!-- Generator: Adobe Illustrator 19.0.0, SVG Export Plug-In . SVG Version: 6.00 Build 0)  -->
<svg version="1.1" id="Layer_1" xmlns="http://www.w3.org/2000/svg" xmlns:xlink="http://www.w3.org/1999/xlink" x="0px" y="0px"
	 viewBox="-248 279.5 344.4 37.8" style="enable-background:new -248 279.5 344.4 37.8;" xml:space="preserve">
<style type="text/css">
	.st0{enable-background:new    ;}
	.st1{fill:#FFFFFF;}
</style>
<g class="st0">
	<path class="st1" d="M-227.7,307.9v-2.1c-0.8,0.6-1,0.8-1.5,1c-1,0.5-3.4,1.6-6.5,1.6c-3.8,0-6.4-1.6-7.5-2.5
		c-0.6-0.5-1.6-1.4-2.4-3.1c-0.9-1.7-1.3-3.6-1.3-5.4c0-1,0.2-3.8,1.8-6.4c1.2-1.8,4-5,9.6-4.9c4.3,0,6.4,1.7,7.8,2.8v-9.2h9.4v28.2
		H-227.7z M-228.1,295c-0.5-1-1.7-2.6-4.4-2.6c-2.9,0-5,1.7-5,4.8c0,0.4,0,1.2,0.4,2.2c0.8,1.8,2.5,2.8,4.5,2.8c2.9,0,4.9-2.1,4.9-5
		C-227.7,296.8-227.7,295.9-228.1,295z"/>
	<path class="st1" d="M-195.4,307.9c-0.2-1-0.3-1-0.4-2c-1.4,0.6-5.6,2.6-10.5,2.6c-6.9,0-9.3-3.5-9.3-6.8c0-0.5,0.1-2.2,1.1-3.6
		c1.2-1.7,3.4-2.4,3.9-2.5c3.6-1.1,11-1.2,14.7-1.2c0-0.7,0-1.2-0.4-1.7c-0.9-1.2-2.8-1.3-4.1-1.3c-1.3,0-3.8,0.2-4.8,1.2
		c-0.2,0.2-0.3,0.4-0.4,0.7h-9.1c0.2-1.2,0.7-4.1,3.7-5.6c1.9-1,5.2-1.7,10.2-1.7c0.8,0,4.6,0,7.7,0.6c0.6,0.1,3.1,0.5,4.6,2.1
		c1.9,1.9,1.7,4.3,1.7,5.1v11.1c0,1.9,0.4,2.4,1.2,3.1H-195.4z M-202,298.5c-1.9,0.2-2.9,0.4-3.5,1.1c-0.2,0.2-0.4,0.6-0.4,1.2
		c0,0.5,0.2,0.8,0.3,0.9c0.4,0.7,1.3,1.2,3,1.2c0.8,0,2.6-0.2,4.4-1.2c0.2-0.1,1-0.6,1.6-1.2c0.6-0.7,0.8-1.4,1-2.4
		C-197.8,298.3-200,298.3-202,298.5z"/>
	<path class="st1" d="M-175.5,307.9c-1,0-2,0-3-0.2c-0.3,0-2-0.3-3-1.5c-0.6-0.8-0.8-1.6-0.8-3.3l0.2-9.9h-3v-5.5h3l0.1-7.2h9.1v7.2
		h3.5v5.5h-3.4v7c0,0.2,0,0.6,0.1,0.8c0.2,0.8,0.8,1,2.2,1h1.1v6H-175.5z"/>
	<path class="st1" d="M-147.8,307.9c-0.2-1-0.3-1-0.4-2c-1.4,0.6-5.6,2.6-10.5,2.6c-6.9,0-9.3-3.5-9.3-6.8c0-0.5,0.1-2.2,1.1-3.6
		c1.2-1.7,3.4-2.4,3.9-2.5c3.6-1.1,11-1.2,14.7-1.2c0-0.7,0-1.2-0.4-1.7c-0.9-1.2-2.8-1.3-4.1-1.3c-1.3,0-3.8,0.2-4.8,1.2
		c-0.2,0.2-0.3,0.4-0.4,0.7h-9.1c0.2-1.2,0.7-4.1,3.7-5.6c1.9-1,5.2-1.7,10.2-1.7c0.8,0,4.6,0,7.7,0.6c0.6,0.1,3.1,0.5,4.6,2.1
		c1.9,1.9,1.7,4.3,1.7,5.1v11.1c0,1.9,0.4,2.4,1.2,3.1H-147.8z M-154.5,298.5c-1.9,0.2-2.9,0.4-3.5,1.1c-0.2,0.2-0.4,0.6-0.4,1.2
		c0,0.5,0.2,0.8,0.3,0.9c0.4,0.7,1.3,1.2,3,1.2c0.8,0,2.6-0.2,4.4-1.2c0.2-0.1,1-0.6,1.6-1.2c0.6-0.7,0.8-1.4,1-2.4
		C-150.3,298.3-152.4,298.3-154.5,298.5z"/>
	<path class="st1" d="M-120.7,294.5c-0.5,0-1,0-1.4,0.1c-0.5,0-2.6,0.2-3.4,1.9c-0.3,0.6-0.4,1.3-0.4,2v9.5h-9.4v-21.2h9.4v3.4
		c1.6-2.4,4.2-3.3,5.1-3.5c0.5-0.1,1.1-0.2,2.2-0.2v8.4C-119.2,294.5-119.9,294.5-120.7,294.5z"/>
	<path class="st1" d="M-116.9,284.6v-5h9.4v5H-116.9z M-116.8,307.9v-21.2h9.4v21.2H-116.8z"/>
	<path class="st1" d="M-76,308.2c-0.2,1.2-0.6,3.3-2.9,5c-2.2,1.6-5.6,3-11.6,3c-7,0-10.9-2.5-12.5-5.1c-0.8-1.4-1-2.9-1.1-3.4h9.6
		c0,0.8,0.2,1.4,0.8,1.9c0.9,1,2.2,1.2,3.6,1.2c2.9,0,4.2-1,4.7-2.4c0.2-0.5,0.3-1,0.3-2c0-0.7,0-1.5,0-2.2
		c-0.3,0.2-0.8,0.6-1.5,0.9c-1.1,0.5-3.6,1.3-6.8,1.3c-0.6,0-2.1,0-3.8-0.5c-2.2-0.6-7.4-2.8-7.4-9.4c0-5,3.1-7.6,4.7-8.6
		c1.1-0.7,3.6-1.7,7-1.7c3.1,0,5.3,0.9,6.4,1.4c0.5,0.2,1,0.6,1.4,0.9v-1.9h9.4v19.4C-75.8,306.9-75.8,307.5-76,308.2z M-86,294
		c-0.6-0.7-2.1-1.7-4.4-1.6c-3.6,0.1-4.6,2.6-4.6,4c0,0.3,0,0.9,0.4,1.5c0.5,1,1.8,2.5,4.6,2.5c2.4,0,4.8-1.4,4.8-4.1
		C-85.2,295.9-85.2,294.9-86,294z"/>
	<path class="st1" d="M-52.7,307.9v-10.3c0-1.5,0-2.2-0.3-2.9c-0.7-1.7-2.5-2.4-4.2-2.4c-1.4,0-2.8,0.3-3.8,1.4
		c-0.2,0.2-0.6,0.6-0.8,1.3c-0.3,0.8-0.5,1.6-0.5,3.3v9.6h-9.3v-28.2h9.5v9.7c1-0.9,1.4-1.2,2-1.6c1.2-0.7,3.3-1.7,6.7-1.7
		c4.4,0,7.2,1.8,8.4,3c0.6,0.6,0.9,1.2,1,1.5c0.9,1.8,0.9,3.7,0.9,5.6v11.8H-52.7z"/>
	<path class="st1" d="M-32.2,307.9c-1,0-2,0-3-0.2c-0.3,0-2-0.3-3-1.5c-0.6-0.8-0.8-1.6-0.8-3.3l0.2-9.9h-3v-5.5h3l0.1-7.2h9.1v7.2
		h3.5v5.5h-3.4v7c0,0.2,0,0.6,0.1,0.8c0.2,0.8,0.8,1,2.2,1h1.1v6H-32.2z"/>
	<path class="st1" d="M0.9,305.1c-2.1,2-5.4,3.4-11.6,3.4c-1.3,0-4.5,0-8-0.9c-0.5-0.1-3.2-0.7-4.7-2.4c-1-1.1-1.4-2.4-1.5-3.8
		l9.5-0.4c0.2,0.6,0.3,0.9,0.5,1.1c1,1.1,3.1,1.4,4.4,1.4c1.6,0,2.6-0.3,3.1-0.7c0.5-0.4,0.6-0.9,0.6-1.2c0-0.4-0.2-0.7-0.5-0.9
		c-0.9-0.6-3.8-0.8-6.8-1.4c-1.4-0.2-2.8-0.5-4.2-0.9c-1.5-0.4-3.2-0.9-4.3-2.1c-0.5-0.6-1.2-1.7-1.2-3.5c0-3.5,2.9-4.9,3.9-5.4
		c1.9-0.9,4.7-1.5,9.4-1.5c6.4,0,9.9,1.6,11.8,3.9c0.2,0.2,0.8,1,1.2,1.9c0.1,0.3,0.2,0.7,0.4,1.3l-9.4,0.4
		c-0.1-0.4-0.1-0.4-0.2-0.6c-0.5-0.9-2.1-1.7-4.4-1.7c-2,0-3.4,0.6-3.4,1.7c0,0.2,0,0.5,0.4,0.8c0.9,0.7,4.5,1,5.6,1.2
		c1.6,0.2,3.1,0.4,4.6,0.6c0.2,0,2.9,0.4,4.4,1.2c2.2,1.2,2.4,3.3,2.4,4.2C2.8,301.9,2.6,303.4,0.9,305.1z"/>
	<path class="st1" d="M5.3,307.9v-7.4h9.2v7.4H5.3z"/>
	<path class="st1" d="M50.8,307.9v-11.5c0-0.6,0-1.4-0.2-1.9c-0.8-2.1-2.9-1.9-3.2-1.9c-3.9,0.2-3.6,4.1-3.6,4.6v10.6h-9.1v-10.3
		c0-0.9,0-2.6-0.6-3.5c-1-1.6-2.9-1.6-3.1-1.6c-0.4,0-2.6,0-3.4,2.2c-0.2,0.5-0.2,1-0.2,1.5v11.8h-9.1v-21.2h8.9v3.5
		c0.3-0.6,0.4-0.8,0.6-1c1.3-1.5,3.8-2.6,7.2-2.7c3,0,5.3,0.9,6.5,2.1c0.6,0.6,0.9,1.2,1.1,1.5c1.4-1.6,4.4-3.6,8.5-3.6
		c2.3,0,6.4,0.8,8.1,3.9c0.6,1.1,0.7,2.3,0.7,3.4v14.1H50.8z"/>
	<path class="st1" d="M72.8,298.6c0,0.2,0.2,0.8,0.4,1.4c1.4,2.9,4.6,3.2,5.4,3.2c1.8,0,3.4-0.8,3.9-1.2c0.4-0.3,0.8-0.6,0.9-0.8
		l9.8,0.5c-0.4,0.8-1.2,2.2-3,3.6c-0.3,0.2-1.1,0.8-2,1.3c-3.8,1.8-9,1.9-10,1.9c-4.6,0-9.9-1-13-4.8c-0.9-1.1-2.2-3.1-2.2-6.5
		c0-1.1,0.2-3.9,2.1-6.4c0.8-1,1.8-1.7,2.2-2c2.2-1.6,5.1-2.8,11-2.7c4.5,0,9.2,0.7,12.5,4.1c0.6,0.6,1.9,2.2,2.6,4.5
		c0.4,1.3,0.4,2.5,0.4,3.9H72.8z M78.6,291.5c-0.6,0-3,0-4.5,1.8c-0.5,0.6-0.6,0.9-0.9,1.6H84C83.4,293.5,82.1,291.5,78.6,291.5z"/>
</g>
</svg>
